<?xml version="1.0" encoding="iso-8859-1"?>
<!-- Uploaded to: SVG Repo, www.svgrepo.com, Generator: SVG Repo Mixer Tools -->
<svg version="1.1" id="Layer_1" xmlns="http://www.w3.org/2000/svg" xmlns:xlink="http://www.w3.org/1999/xlink"
	 viewBox="0 0 512 512" xml:space="preserve">
<circle style="fill:#4AB8A1;" cx="256" cy="256" r="256"/>
<path style="fill:#E6E6E6;" d="M208,158.332V96.676c0-4.4,3.604-6.344,8.004-6.344h88c4.404,0,7.996,1.944,7.996,6.344v61.656H208z"
	/>
<path style="fill:#CCCCCC;" d="M304.004,90.332h-8c4.404,0,7.996,1.944,7.996,6.344v61.656h8V96.676
	C312,92.276,308.408,90.332,304.004,90.332z"/>
<path style="fill:#E6E6E6;" d="M328,294.332c0,8.836-7.164,16-16,16H208c-8.836,0-16-7.164-16-16v-120c0-8.836,7.164-16,16-16h104
	c8.836,0,16,7.164,16,16V294.332z"/>
<path style="fill:#CCCCCC;" d="M312,158.332h-16c8.836,0,16,7.164,16,16v120c0,8.836-7.164,16-16,16h16c8.836,0,16-7.164,16-16v-120
	C328,165.496,320.836,158.332,312,158.332z"/>
<g>
	<rect x="228" y="106.332" style="fill:#B3B3B3;" width="16" height="36"/>
	<rect x="276" y="106.332" style="fill:#B3B3B3;" width="16" height="36"/>
	<rect x="208" y="154.332" style="fill:#B3B3B3;" width="104" height="4"/>
	<path style="fill:#B3B3B3;" d="M296,212.676c0.004-4.416-3.58-8-7.996-8s-8,3.58-8,8c0,2.956,0,5.504,4,6.892v6.788l-20,11.428
		v-47.452h8.004l-12-16l-12,16H256v55.452l-20-11.428v-8.024h4v-16h-16v16h4v12.664l28,16v2.416c-4,1.66-7.996,6.048-7.996,11.268
		c0,6.624,5.376,12,12,12c6.628,0,12-5.376,12-12c0-5.22-4-9.608-8-11.264V247l28-16v-11.428
		C296,218.18,296.004,215.632,296,212.676z"/>
</g>
<path style="fill:#E6E6E6;" d="M284,310.332v16c0,4.404-3.6,8-8,8h-32c-4.4,0-8-3.596-8-8v-16H284z"/>
<g>
	<path style="fill:#CCCCCC;" d="M276,310.332v16c0,4.404-3.6,8-8,8h8c4.4,0,8-3.596,8-8v-16H276z"/>
	<rect x="236" y="310.32" style="fill:#CCCCCC;" width="48" height="4"/>
	<path style="fill:#CCCCCC;" d="M252,511.9c1.336,0.016,2.66,0.096,4,0.096c4.024,0,8.02-0.12,12-0.304v-177.36h-16V511.9z"/>
</g>
</svg>
